<svg width="35" height="35" viewBox="0 0 35 35" fill="none" xmlns="http://www.w3.org/2000/svg">
<g clip-path="url(#clip0_1_9)">
<path d="M17.5004 35C27.1657 35 35.0007 27.1652 35.0007 17.5C35.0007 7.83483 27.165 0 17.5004 0C7.83571 0 0 7.83483 0 17.5C0 27.1652 7.83499 35 17.5004 35ZM16.756 6.27923C16.756 5.86857 17.089 5.53559 17.5004 5.53559C17.9117 5.53559 18.244 5.86857 18.244 6.27923V17.8833C18.244 18.294 17.911 18.6277 17.5004 18.6277C17.0897 18.6277 16.756 18.2947 16.756 17.8833V6.27923ZM4.10809 17.6704C4.10809 16.6406 4.94308 15.8056 5.97298 15.8056H16.3309V16.6902C16.044 16.9843 15.867 17.3856 15.867 17.8294C15.867 18.7313 16.5985 19.4627 17.5004 19.4627C18.4022 19.4627 19.1337 18.7313 19.1337 17.8294C19.1337 17.3856 18.956 16.9843 18.6698 16.6902V15.8056H29.0277C30.0576 15.8056 30.8926 16.6406 30.8926 17.6704C30.8926 18.7003 30.0576 19.5353 29.0277 19.5353H28.8616L25.0016 29.4644H10.3925L6.14055 19.5353H5.97442C4.94452 19.5353 4.10952 18.7003 4.10952 17.6704H4.10809Z" fill="white"/>
</g>
<defs>
<clipPath id="clip0_1_9">
<rect width="35" height="35" fill="white"/>
</clipPath>
</defs>
</svg>
