<svg width="35" height="35" viewBox="0 0 35 35" fill="none" xmlns="http://www.w3.org/2000/svg">
<g clip-path="url(#clip0_1_5)">
<path d="M24.2666 33.6361C33.179 29.897 37.3728 19.6409 33.6337 10.7285C29.8946 1.81613 19.6385 -2.37765 10.7261 1.36146C1.81368 5.10057 -2.38011 15.3566 1.359 24.269C5.09811 33.1815 15.3542 37.3752 24.2666 33.6361Z" fill="white"/>
<path d="M22.4859 9.2496C22.4859 11.9997 20.2502 14.2355 17.5 14.2355C14.7499 14.2355 12.5142 11.9997 12.5142 9.2496C12.5142 6.49946 14.7499 4.26373 17.5 4.26373C20.2502 4.26373 22.4859 6.49946 22.4859 9.2496Z" fill="black"/>
<path d="M17.5 15.9468C12.3954 15.9468 8.25043 20.0918 8.25043 25.1964C8.25043 26.5319 9.33861 27.6201 10.6741 27.6201H24.316C25.6515 27.6201 26.7397 26.5319 26.7397 25.1964C26.7397 20.0918 22.5947 15.9468 17.4901 15.9468H17.5Z" fill="black"/>
</g>
<defs>
<clipPath id="clip0_1_5">
<rect width="35" height="35" fill="white"/>
</clipPath>
</defs>
</svg>
